<svg width="16" height="18" viewBox="0 0 16 18" fill="none" xmlns="http://www.w3.org/2000/svg">
<path d="M12.6953 0.671936C12.3975 0.671936 12.1137 0.748949 11.8502 0.883126L11.8505 0.878891C11.8505 0.878891 8.88453 1.97877 8.80002 5.4192V16.9259C8.80002 16.9865 8.85078 17.0362 8.91261 17.0362H10.5591C10.6209 17.0362 10.6717 16.9865 10.6717 16.9259V6.29493C10.9317 6.43625 11.1914 6.63976 11.3356 6.75938C11.3523 6.775 11.3704 6.7877 11.3874 6.80279C11.4271 6.83666 11.4503 6.85757 11.4503 6.85757L11.4506 6.85519C11.8151 7.15424 12.2401 7.32944 12.6958 7.32944C14.038 7.32944 15.1258 5.8392 15.1258 4.00069C15.1258 2.16217 14.0375 0.671936 12.6953 0.671936ZM13.39 5.03599C13.39 5.41047 13.0774 5.71693 12.6953 5.71693C12.3133 5.71693 12.0006 5.41047 12.0006 5.03599V2.96565C12.0006 2.59117 12.3133 2.2847 12.6953 2.2847C13.0774 2.2847 13.39 2.59117 13.39 2.96565V5.03599Z" fill="white"/>
<path d="M0.700012 4.00069C0.700012 5.8392 1.78784 7.32944 3.13001 7.32944C3.58577 7.32944 4.01075 7.15424 4.37525 6.85519L4.37552 6.85757C4.37552 6.85757 4.39874 6.83666 4.43843 6.80279C4.45544 6.78797 4.47353 6.775 4.49027 6.75938C4.63418 6.6395 4.89419 6.43598 5.1542 6.29493V16.9259C5.1542 16.9865 5.20496 17.0362 5.26679 17.0362H6.91325C6.97508 17.0362 7.02584 16.9865 7.02584 16.9259V5.4192C6.94133 1.97877 3.97538 0.878891 3.97538 0.878891L3.97565 0.883126C3.71213 0.748949 3.42809 0.671936 3.13055 0.671936C1.78811 0.671936 0.700012 2.16244 0.700012 4.00069ZM2.4353 2.96565C2.4353 2.59117 2.74796 2.2847 3.13001 2.2847C3.51206 2.2847 3.82472 2.59117 3.82472 2.96565V5.03573C3.82472 5.4102 3.51206 5.71667 3.13001 5.71667C2.74796 5.71667 2.4353 5.4102 2.4353 5.03573V2.96565Z" fill="white"/>
</svg>
