<svg width="15" height="17" viewBox="0 0 15 17" fill="none" xmlns="http://www.w3.org/2000/svg">
<path d="M12.6458 0H2.35415C1.26325 0 0.375 0.79475 0.375 1.77082V15.2291C0.375 16.2052 1.26325 17 2.35415 17H12.6458C13.7367 17 14.625 16.2052 14.625 15.2292V1.77082C14.625 0.79475 13.7367 0 12.6458 0ZM7.5 15.9375C7.06378 15.9375 6.70835 15.6194 6.70835 15.2292C6.70835 14.8389 7.06382 14.5209 7.5 14.5209C7.93618 14.5209 8.29165 14.8389 8.29165 15.2292C8.29165 15.6194 7.93622 15.9375 7.5 15.9375ZM13.0417 13.8125C13.0417 14.008 12.8643 14.1667 12.6458 14.1667H2.35415C2.13565 14.1667 1.95831 14.008 1.95831 13.8125V1.77082C1.95831 1.57532 2.13565 1.41664 2.35415 1.41664H12.6458C12.8643 1.41664 13.0417 1.57532 13.0417 1.77082V13.8125Z" fill="white"/>
</svg>
