<svg width="12" height="18" viewBox="0 0 12 18" fill="none" xmlns="http://www.w3.org/2000/svg">
<path d="M9.78669 0H2.21333C1.48853 0 0.903442 0.587712 0.903442 1.3112V16.6901C0.903442 17.4129 1.48853 18 2.21333 18H9.78669C10.5102 18 11.0966 17.4129 11.0966 16.6901V1.3112C11.0966 0.587712 10.5102 0 9.78669 0ZM4.13127 0.796298H7.87006C7.96452 0.796298 8.04126 0.937322 8.04126 1.1118C8.04126 1.28628 7.96452 1.42796 7.87006 1.42796H4.13127C4.03616 1.42796 3.96073 1.28628 3.96073 1.1118C3.96073 0.937322 4.03616 0.796298 4.13127 0.796298ZM6.00067 16.7059C5.53955 16.7059 5.16436 16.3307 5.16436 15.8689C5.16436 15.4071 5.53955 15.0332 6.00067 15.0332C6.46047 15.0332 6.83566 15.4071 6.83566 15.8689C6.83566 16.3307 6.46047 16.7059 6.00067 16.7059ZM10.1153 13.8401H1.88537V2.21245H10.1153V13.8401Z" fill="white"/>
</svg>
