<svg width="162" height="38" viewBox="0 0 162 38" fill="none" xmlns="http://www.w3.org/2000/svg">
<path d="M23.4545 21.7431C22.6475 21.3521 21.9442 20.7801 21.4007 20.0729C20.8572 19.3657 20.4887 18.5428 20.3245 17.67C20.319 17.6122 20.3015 17.5561 20.273 17.5054C20.2445 17.4546 20.2057 17.4102 20.1589 17.3751C20.1122 17.3399 20.0585 17.3147 20.0014 17.301C19.9443 17.2874 19.8849 17.2856 19.8271 17.2957C19.7692 17.3059 19.7141 17.3278 19.6653 17.3601C19.6164 17.3923 19.5749 17.4343 19.5433 17.4832C19.5117 17.5322 19.4907 17.587 19.4817 17.6444C19.4727 17.7017 19.4758 17.7603 19.4909 17.8164C19.6776 18.8165 20.098 19.7598 20.7186 20.5713C21.3392 21.3829 22.1429 22.0402 23.0657 22.4912C22.6282 23.7274 22.0301 24.9023 21.2863 25.9864C20.2483 27.4866 19.066 29.1887 17.3187 29.2204C15.5713 29.252 14.914 28.116 12.6777 28.116C10.4414 28.116 9.71202 29.1927 8.04481 29.256C6.47779 29.3154 5.21936 27.7083 3.96494 25.9152C1.64046 22.5981 -0.199071 16.4548 2.19755 12.346C2.66829 11.5152 3.31968 10.7977 4.10485 10.2454C4.89001 9.69301 5.78941 9.31947 6.73829 9.15163C6.84837 9.13132 6.9462 9.06966 7.01121 8.97961C7.07623 8.88956 7.10338 8.77812 7.08696 8.66871C7.06831 8.55903 7.00634 8.46114 6.91465 8.39657C6.82297 8.332 6.70908 8.30602 6.59802 8.32434C5.52295 8.51019 4.50317 8.92979 3.61249 9.55277C2.72181 10.1758 1.9825 10.9865 1.44809 11.9264C-1.11284 16.3202 0.734718 22.796 3.25157 26.3941C4.28957 27.8745 5.84457 30.0952 7.95263 30.0952C9.85229 30.0952 10.5657 28.9552 12.6657 28.9552C14.7658 28.9552 15.3108 30.0991 17.3227 30.0595C19.5109 30.02 20.8775 28.0448 21.9756 26.4575C22.7631 25.3095 23.3963 24.0655 23.8593 22.7564C23.9257 22.5676 23.9214 22.3615 23.8472 22.1756C23.7729 21.9897 23.6336 21.8362 23.4545 21.7431Z" fill="white"/>
<path d="M18.1804 2.28788C18.1755 2.17038 18.1457 2.0552 18.0927 1.94989C18.0397 1.84459 17.9647 1.75152 17.8728 1.67679C17.7809 1.60205 17.674 1.54733 17.5592 1.51622C17.4443 1.4851 17.3242 1.47829 17.2065 1.49622C13.9081 1.97913 11.5235 5.1458 11.6277 7.91663C11.638 8.1288 11.73 8.32905 11.8851 8.47627C12.0401 8.62349 12.2463 8.70652 12.4613 8.7083H12.4854C15.5753 8.60934 18.2445 5.43872 18.1804 2.28788ZM12.4734 7.85726C12.4985 6.52096 13.0042 5.23708 13.9001 4.23538C14.7958 3.23656 16.0029 2.56105 17.3307 2.31559C17.3828 4.97955 15.1144 7.77414 12.4734 7.85726Z" fill="white"/>
<path d="M22.9215 10.7231C21.639 9.11207 19.8155 8.31249 17.7114 8.15811C15.3068 7.98395 13.2428 9.43665 12.293 9.43665C11.5195 9.43665 10.1809 8.62519 8.73414 8.33624C8.67797 8.32035 8.61907 8.31608 8.56114 8.3237C8.50322 8.33131 8.44751 8.35065 8.3975 8.3805C8.34748 8.41035 8.30423 8.45007 8.27047 8.49718C8.23671 8.54428 8.21314 8.59777 8.20126 8.65427C8.18937 8.71078 8.18943 8.76911 8.2014 8.8256C8.21338 8.88209 8.23702 8.93553 8.27086 8.98259C8.3047 9.02964 8.34801 9.06929 8.39807 9.09906C8.44813 9.12883 8.50387 9.14809 8.5618 9.15561C9.98054 9.44061 11.267 10.2758 12.293 10.2758C13.5314 10.2758 15.427 8.83103 17.6473 8.99728C19.4949 9.13186 21.102 9.8127 22.2362 11.2337C21.4865 11.7594 20.8517 12.4288 20.3697 13.2021C19.8877 13.9753 19.5684 14.8366 19.4308 15.7344C19.4205 15.7891 19.422 15.8453 19.4352 15.8995C19.4484 15.9536 19.473 16.0043 19.5074 16.0484C19.5418 16.0925 19.5853 16.1289 19.6349 16.1553C19.6845 16.1816 19.7392 16.1974 19.7954 16.2014H19.8516C19.9545 16.2014 20.0538 16.1644 20.1312 16.0974C20.2086 16.0305 20.2588 15.938 20.2724 15.8373C20.3952 15.0528 20.6767 14.3008 21.1001 13.6262C21.5236 12.9516 22.0804 12.3681 22.7371 11.9106C22.8298 11.8458 22.9083 11.7633 22.9679 11.6679C23.0276 11.5726 23.0672 11.4663 23.0844 11.3555C23.1016 11.2447 23.0961 11.1316 23.0681 11.0229C23.0401 10.9143 22.9902 10.8123 22.9215 10.7231Z" fill="white"/>
<path d="M56.8067 16.0985C56.8359 16.1532 56.8484 16.2151 56.8428 16.2766V24.9375C56.8417 25.4095 56.6514 25.862 56.3134 26.1958C55.9754 26.5297 55.5173 26.7177 55.0393 26.7187C54.8046 26.7172 54.5725 26.6698 54.3565 26.5793C54.1404 26.4888 53.9446 26.3569 53.7803 26.1914C53.616 26.0258 53.4865 25.8298 53.3993 25.6146C53.312 25.3994 53.2687 25.1692 53.2719 24.9375V15.956C53.2719 14.9923 52.8843 14.068 52.1943 13.3865C51.5044 12.7051 50.5686 12.3222 49.5928 12.3222C48.6171 12.3222 47.6813 12.7051 46.9913 13.3865C46.3014 14.068 45.9137 14.9923 45.9137 15.956V24.9375C45.9169 25.1692 45.8736 25.3994 45.7864 25.6146C45.6991 25.8298 45.5696 26.0258 45.4054 26.1914C45.2411 26.3569 45.0453 26.4888 44.8292 26.5793C44.6131 26.6698 44.381 26.7172 44.1463 26.7187C43.6683 26.7177 43.2102 26.5297 42.8723 26.1958C42.5343 25.862 42.3439 25.4095 42.3429 24.9375V15.956C42.3114 15.0177 41.9119 14.1282 41.2288 13.4754C40.5456 12.8227 39.6323 12.4577 38.6818 12.4577C37.7313 12.4577 36.818 12.8227 36.1348 13.4754C35.4517 14.1282 35.0522 15.0177 35.0208 15.956V24.9375C35.0322 25.1761 34.9945 25.4145 34.91 25.6383C34.8254 25.8621 34.6957 26.0666 34.5288 26.2395C34.3619 26.4123 34.1612 26.5499 33.9388 26.6439C33.7165 26.738 33.4772 26.7864 33.2353 26.7864C32.9935 26.7864 32.7541 26.738 32.5318 26.6439C32.3095 26.5499 32.1088 26.4123 31.9418 26.2395C31.7749 26.0666 31.6453 25.8621 31.5607 25.6383C31.4761 25.4145 31.4384 25.1761 31.4499 24.9375V15.956C31.4573 14.0624 32.2247 12.249 33.5837 10.9134C34.9428 9.57774 36.7826 8.82889 38.6998 8.831C39.7338 8.82666 40.7563 9.04424 41.6967 9.46866C42.6371 9.89309 43.4729 10.5142 44.1463 11.2891C44.8197 10.5142 45.6556 9.89309 46.596 9.46866C47.5364 9.04424 48.5589 8.82666 49.5928 8.831C51.51 8.82889 53.3499 9.57774 54.7089 10.9134C56.068 12.249 56.8354 14.0624 56.8428 15.956C56.8348 16.0272 56.8348 16.0629 56.8067 16.0985Z" fill="#844CD4"/>
<path d="M73.3987 10.6479V28.211C73.3947 29.8726 72.8212 31.4838 71.7716 32.7822C70.722 34.0807 69.2582 34.9899 67.6186 35.3617C65.979 35.7335 64.2603 35.546 62.7424 34.8297C61.2244 34.1135 59.9968 32.9107 59.2594 31.4173C59.1561 31.2094 59.0955 30.9832 59.0814 30.752C59.0672 30.5208 59.0996 30.2892 59.1768 30.0704C59.254 29.8517 59.3743 29.6503 59.5309 29.4779C59.6875 29.3055 59.8772 29.1655 60.089 29.066C60.2979 28.965 60.525 28.906 60.7572 28.8925C60.9893 28.8791 61.2219 28.9115 61.4412 28.9877C61.6606 29.064 61.8624 29.1827 62.0348 29.3368C62.2073 29.4909 62.3469 29.6774 62.4456 29.8854C62.7713 30.5266 63.2708 31.066 63.8886 31.4434C64.5063 31.8208 65.218 32.0214 65.9443 32.0229C66.4537 32.026 66.9588 31.9298 67.4305 31.7398C67.9022 31.5498 68.3313 31.2697 68.6932 30.9156C69.0551 30.5615 69.3426 30.1403 69.5394 29.6762C69.7362 29.2121 69.8383 28.7142 69.8398 28.211V25.646C68.7168 26.307 67.432 26.652 66.1247 26.6435C64.2149 26.6416 62.3829 25.8963 61.0258 24.5692C59.6687 23.2421 58.8958 21.4402 58.8747 19.5542V10.6479C58.8747 10.1849 59.0609 9.74093 59.3924 9.41356C59.7238 9.0862 60.1734 8.90228 60.6421 8.90228C61.1108 8.90228 61.5604 9.0862 61.8918 9.41356C62.2233 9.74093 62.4095 10.1849 62.4095 10.6479V19.4829C62.4095 20.4561 62.8009 21.3894 63.4977 22.0775C64.1944 22.7657 65.1393 23.1523 66.1247 23.1523C67.11 23.1523 68.055 22.7657 68.7517 22.0775C69.4484 21.3894 69.8398 20.4561 69.8398 19.4829V10.6479C69.8616 10.1947 70.0592 9.7671 70.3916 9.45393C70.7241 9.14077 71.1659 8.96606 71.6253 8.96606C72.0847 8.96606 72.5264 9.14077 72.8589 9.45393C73.1914 9.7671 73.389 10.1947 73.4107 10.6479H73.3987Z" fill="#844CD4"/>
<path d="M93.0205 26.6079C92.5345 26.7017 92.0307 26.6249 91.596 26.3907C91.1614 26.1565 90.8231 25.7797 90.6399 25.3254L89.3414 21.6917H80.5244L79.0255 25.3333C78.9409 25.7167 78.7193 26.0573 78.4015 26.2928C78.0836 26.5282 77.6906 26.6429 77.2942 26.6158H76.8934C76.4285 26.4414 76.0422 26.1085 75.804 25.6773C75.5659 25.2461 75.4917 24.745 75.5949 24.2646L83.3138 3.03207C83.4316 2.66022 83.6666 2.33527 83.9846 2.10457C84.3025 1.87387 84.6867 1.7495 85.0812 1.74957C85.4655 1.75594 85.8377 1.88398 86.1428 2.11484C86.448 2.34571 86.6701 2.66722 86.7765 3.03207L94.1066 24.2567C94.5073 25.1117 94.1066 26.1448 93.0205 26.6079ZM88.2593 18.0935L85.0852 8.98937L81.839 18.0935H88.2593Z" fill="white"/>
<path d="M99.9779 24.9691V33.8398C99.9779 34.3069 99.79 34.755 99.4555 35.0853C99.1211 35.4156 98.6674 35.6012 98.1944 35.6012C97.7215 35.6012 97.2678 35.4156 96.9334 35.0853C96.5989 34.755 96.411 34.3069 96.411 33.8398V17.8441C96.4165 15.8338 97.1095 13.8843 98.3776 12.3118C99.6457 10.7393 101.415 9.63616 103.397 9.18127C105.38 8.72638 107.46 8.94644 109.3 9.80576C111.14 10.6651 112.632 12.1133 113.534 13.9153C114.437 15.7174 114.696 17.7677 114.27 19.7336C113.844 21.6994 112.758 23.4655 111.189 24.7454C109.619 26.0253 107.658 26.7438 105.623 26.7844C103.588 26.825 101.599 26.1853 99.9779 24.9691ZM99.9779 17.8441V17.8798C99.9827 19.3196 100.566 20.6987 101.599 21.7144C102.632 22.73 104.032 23.2991 105.489 23.2967C106.947 23.2944 108.345 22.7207 109.375 21.7018C110.405 20.6828 110.983 19.3018 110.983 17.862C110.983 16.4221 110.405 15.0411 109.375 14.0221C108.345 13.0032 106.947 12.4295 105.489 12.4272C104.032 12.4248 102.632 12.9939 101.599 14.0095C100.566 15.0252 99.9827 16.4043 99.9779 17.8441Z" fill="white"/>
<path d="M120.213 24.9691V33.8398C120.191 34.293 119.994 34.7206 119.661 35.0337C119.329 35.3469 118.887 35.5216 118.427 35.5216C117.968 35.5216 117.526 35.3469 117.194 35.0337C116.861 34.7206 116.664 34.293 116.642 33.8398V17.8441C116.646 15.8328 117.339 13.882 118.607 12.3081C119.874 10.7342 121.644 9.62957 123.627 9.17348C125.61 8.71738 127.691 8.93655 129.533 9.79543C131.374 10.6543 132.868 12.1025 133.771 13.9051C134.675 15.7076 134.935 17.7588 134.51 19.7258C134.085 21.6928 132.999 23.4602 131.429 24.7413C129.859 26.0224 127.897 26.742 125.861 26.7833C123.825 26.8247 121.835 26.1854 120.213 24.9691ZM120.213 17.8441V17.8798C120.218 19.3196 120.801 20.6987 121.834 21.7144C122.867 22.73 124.267 23.2991 125.724 23.2967C127.182 23.2944 128.58 22.7208 129.61 21.7018C130.64 20.6828 131.218 19.3018 131.218 17.862C131.218 16.4221 130.64 15.0411 129.61 14.0221C128.58 13.0032 127.182 12.4295 125.724 12.4272C124.267 12.4248 122.867 12.9939 121.834 14.0096C120.801 15.0252 120.218 16.4043 120.213 17.8441Z" fill="white"/>
<path d="M136.769 24.8979V1.70601C136.791 1.25277 136.988 0.825209 137.321 0.512046C137.653 0.198883 138.095 0.0241699 138.554 0.0241699C139.014 0.0241699 139.455 0.198883 139.788 0.512046C140.12 0.825209 140.318 1.25277 140.34 1.70601V24.8979C140.351 25.1365 140.313 25.3749 140.229 25.5987C140.144 25.8225 140.015 26.027 139.848 26.1999C139.681 26.3728 139.48 26.5104 139.258 26.6044C139.035 26.6984 138.796 26.7469 138.554 26.7469C138.312 26.7469 138.073 26.6984 137.851 26.6044C137.628 26.5104 137.428 26.3728 137.261 26.1999C137.094 26.027 136.964 25.8225 136.88 25.5987C136.795 25.3749 136.757 25.1365 136.769 24.8979Z" fill="white"/>
<path d="M160.611 17.7016C160.609 17.9334 160.561 18.1626 160.469 18.3761C160.378 18.5895 160.244 18.7829 160.077 18.9451C159.909 19.1074 159.711 19.2353 159.493 19.3215C159.275 19.4076 159.042 19.4504 158.807 19.4472H146.363C146.735 20.5193 147.438 21.4496 148.372 22.1076C149.306 22.7656 150.426 23.1184 151.573 23.1166C153.011 23.1352 154.42 22.721 155.613 21.9291C156.443 21.3947 157.561 21.8935 157.994 22.7485C158.426 23.6035 157.958 24.5654 157.128 25.0997C155.503 26.2109 153.546 26.7504 151.573 26.6316C149.172 26.6316 146.869 25.6895 145.172 24.0126C143.474 22.3357 142.52 20.0613 142.52 17.6897C142.52 15.3182 143.474 13.0438 145.172 11.3669C146.869 9.68995 149.172 8.74786 151.573 8.74786C155.922 8.75974 160.611 11.8947 160.611 17.7016ZM146.363 15.9204H156.783C156.026 13.4266 153.717 12.2866 151.573 12.2866C150.431 12.2846 149.316 12.6331 148.382 13.2841C147.449 13.935 146.744 14.8562 146.363 15.9204Z" fill="white"/>
</svg>
