<svg width="18" height="18" viewBox="0 0 18 18" fill="none" xmlns="http://www.w3.org/2000/svg">
<path d="M16.8023 0.738464H1.20113C0.538086 0.738464 0 1.27993 0 1.94747V13.0289C0 13.6976 0.538086 14.2379 1.20113 14.2379H7.18537C7.18537 14.2379 6.13396 16.657 3.25328 16.657V17.2615H5.36961H10.5118H14.4439V16.657C11.4822 16.657 10.8124 14.2379 10.8124 14.2379H16.8011C17.463 14.2379 18 13.6976 18 13.0289V1.94747C18.0023 1.27993 17.4642 0.738464 16.8023 0.738464ZM9.00113 13.9891C8.62852 13.9891 8.32683 13.6874 8.32683 13.3148C8.32683 12.9433 8.62852 12.6417 9.00113 12.6417C9.37261 12.6417 9.67542 12.9433 9.67542 13.3148C9.6743 13.6874 9.37261 13.9891 9.00113 13.9891ZM16.7156 12.2769H1.28668V2.02402H16.7167L16.7156 12.2769Z" fill="white"/>
</svg>
