<svg width="11" height="11" viewBox="0 0 11 11" fill="none" xmlns="http://www.w3.org/2000/svg">
<path d="M10.5367 7.9596C10.4384 7.8386 10.2734 7.79387 10.1282 7.84593C9.7212 7.99187 9.27974 8.06667 8.8148 8.06667C6.5906 8.06667 4.78147 6.2568 4.78147 4.03333C4.78147 2.695 5.4422 1.44907 6.5488 0.6996C6.6742 0.614533 6.73434 0.461267 6.7006 0.313867C6.66687 0.166467 6.54587 0.055 6.39554 0.033C6.22394 0.00806667 6.05307 0 5.88147 0C2.8484 0 0.38147 2.46693 0.38147 5.5C0.38147 8.53307 2.8484 11 5.88147 11C7.80647 11 9.55767 10.0217 10.5645 8.38347C10.6459 8.25073 10.6342 8.08133 10.5367 7.9596Z" fill="white"/>
</svg>
