<svg width="16" height="16" viewBox="0 0 16 16" fill="none" xmlns="http://www.w3.org/2000/svg">
<path d="M0.379944 6.50134L1.87863 14.6069C2.02081 15.4069 2.71258 15.9922 3.52507 16H12.4749C13.2875 15.9922 13.9792 15.4069 14.1214 14.6069L15.62 6.50134H0.379944ZM5.25595 10.132C5.25595 10.3651 5.06694 10.5541 4.83378 10.5541C4.60062 10.5541 4.41162 10.3651 4.41162 10.132V8.86549C4.41162 8.63233 4.60062 8.44332 4.83378 8.44332C5.06694 8.44332 5.25595 8.63233 5.25595 8.86549V10.132ZM11.5884 10.132C11.5884 10.3651 11.3994 10.5541 11.1663 10.5541C10.9331 10.5541 10.7441 10.3651 10.7441 10.132V8.86549C10.7441 8.63233 10.9331 8.44332 11.1663 8.44332C11.3994 8.44332 11.5884 8.63233 11.5884 8.86549V10.132Z" fill="white"/>
<path d="M5.25595 3.58838C5.25595 2.07289 6.4845 0.84433 8 0.84433C9.51549 0.84433 10.744 2.07289 10.744 3.58838V6.07915H11.5884V3.58838C11.5884 1.60656 9.98181 0 8 0C6.01818 0 4.41162 1.60656 4.41162 3.58838V6.07915H5.25595V3.58838Z" fill="white"/>
</svg>
