<svg width="12" height="12" viewBox="0 0 12 12" fill="none" xmlns="http://www.w3.org/2000/svg">
<g opacity="0.6">
<path d="M8.12699 3.87302C7.58731 3.33334 6.8254 2.98413 6.00001 2.98413C5.17461 2.98413 4.4127 3.31746 3.87302 3.87302C3.33334 4.4127 2.98413 5.17461 2.98413 6C2.98413 6.8254 3.33334 7.58731 3.87302 8.12699C4.4127 8.66667 5.17461 9.01588 6.00001 9.01588C6.8254 9.01588 7.58731 8.68254 8.12699 8.12699C8.66667 7.58731 9.01588 6.8254 9.01588 6C9.01588 5.17461 8.68255 4.4127 8.12699 3.87302Z" fill="white"/>
<path d="M5.99998 2.04762C6.2222 2.04762 6.41268 1.85714 6.41268 1.63492V0.412698C6.41268 0.190476 6.2222 0 5.99998 0C5.77776 0 5.58728 0.190476 5.58728 0.412698V1.63492C5.58728 1.85714 5.77776 2.04762 5.99998 2.04762Z" fill="white"/>
<path d="M9.38097 3.20631L10.254 2.3333C10.4127 2.17457 10.4127 1.9206 10.254 1.76187C10.0953 1.60314 9.84129 1.60314 9.68256 1.76187L8.80954 2.63488C8.65081 2.79361 8.65081 3.04758 8.80954 3.20631C8.9524 3.36504 9.20637 3.36504 9.38097 3.20631Z" fill="white"/>
<path d="M11.5873 5.58728H10.3651C10.1429 5.58728 9.95239 5.77776 9.95239 5.99998C9.95239 6.2222 10.1429 6.41268 10.3651 6.41268H11.5873C11.8095 6.41268 12 6.2222 12 5.99998C12 5.77776 11.8095 5.58728 11.5873 5.58728Z" fill="white"/>
<path d="M9.3651 8.79373C9.20637 8.635 8.9524 8.635 8.79367 8.79373C8.63494 8.95246 8.63494 9.20643 8.79367 9.36516L9.66668 10.2382C9.82541 10.3969 10.0794 10.3969 10.2381 10.2382C10.3968 10.0794 10.3968 9.82548 10.2381 9.66675L9.3651 8.79373Z" fill="white"/>
<path d="M5.99998 9.95239C5.77776 9.95239 5.58728 10.1429 5.58728 10.3651V11.5873C5.58728 11.8095 5.77776 12 5.99998 12C6.2222 12 6.41268 11.8095 6.41268 11.5873V10.3651C6.41268 10.1429 6.2222 9.95239 5.99998 9.95239Z" fill="white"/>
<path d="M2.61908 8.79373L1.74606 9.66675C1.58733 9.82548 1.58733 10.0794 1.74606 10.2382C1.90479 10.3969 2.15876 10.3969 2.31749 10.2382L3.19051 9.36516C3.34924 9.20643 3.34924 8.95246 3.19051 8.79373C3.04765 8.635 2.79368 8.635 2.61908 8.79373Z" fill="white"/>
<path d="M2.04762 5.99998C2.04762 5.77776 1.85714 5.58728 1.63492 5.58728H0.412698C0.190476 5.58728 0 5.77776 0 5.99998C0 6.2222 0.190476 6.41268 0.412698 6.41268H1.63492C1.85714 6.41268 2.04762 6.2222 2.04762 5.99998Z" fill="white"/>
<path d="M2.61908 3.20631C2.77781 3.36504 3.03178 3.36504 3.19051 3.20631C3.34924 3.04758 3.34924 2.79361 3.19051 2.63488L2.31749 1.76187C2.15876 1.60314 1.90479 1.60314 1.74606 1.76187C1.58733 1.9206 1.58733 2.17457 1.74606 2.3333L2.61908 3.20631Z" fill="white"/>
</g>
</svg>
