<svg width="12" height="17" viewBox="0 0 12 17" fill="none" xmlns="http://www.w3.org/2000/svg">
<path fill-rule="evenodd" clip-rule="evenodd" d="M8.88499 2.54637C8.88499 2.54637 10.0664 3.00005 10.0856 3.01166C10.6563 3.25608 11.0669 3.65529 11.0669 4.26058V5.96028H11.5469V7.42228H11.0669V8.94859H11.5469V10.4106H11.0669V12.7534C11.0669 13.3782 10.5266 13.8699 10.0314 14.0154L8.88506 14.4536L8.53106 16.6751C8.5012 16.8623 8.33976 17 8.15017 17H2.91686C2.72726 17 2.56583 16.8622 2.53597 16.6751L2.18197 14.4536L1.04206 14.0186C1.04088 14.0181 1.03974 14.0175 1.03861 14.0169C1.03757 14.0164 1.03653 14.0159 1.03548 14.0154C0.492663 13.8206 0 13.3782 0 12.7534V4.26051C0 3.65529 0.419019 3.21045 0.981224 3.01166C1.00054 3.00005 2.18197 2.54637 2.18197 2.54637L2.53597 0.324929C2.56583 0.137739 2.72726 0 2.91686 0H8.15017C8.33976 0 8.5012 0.137739 8.53099 0.324929L8.88499 2.54637ZM9.06864 12.7964C9.48469 12.7964 9.82292 12.4582 9.82292 12.0422L9.82285 4.97184C9.82285 4.55579 9.48462 4.21756 9.06857 4.21756H1.99831C1.58227 4.21756 1.24404 4.55579 1.24404 4.97184V12.0422C1.24404 12.4582 1.58227 12.7964 1.99831 12.7964H9.06864Z" fill="white"/>
</svg>
